<mxfile host="Electron" modified="2024-05-11T09:33:56.256Z" agent="Mozilla/5.0 (Windows NT 10.0; Win64; x64) AppleWebKit/537.36 (KHTML, like Gecko) draw.io/24.2.5 Chrome/120.0.6099.109 Electron/28.1.0 Safari/537.36" etag="YzZSW8okKQRcMLkvVK-0" version="24.2.5" type="device">
  <diagram name="第 1 页" id="lJStV8RaI5A1z8thdrf8">
    <mxGraphModel dx="2655" dy="744" grid="1" gridSize="10" guides="1" tooltips="1" connect="1" arrows="1" fold="1" page="1" pageScale="1" pageWidth="827" pageHeight="1169" math="0" shadow="0">
      <root>
        <mxCell id="0" />
        <mxCell id="1" parent="0" />
        <mxCell id="T2i8vjYdA1fQETbM9QM9-3" value="" style="edgeStyle=orthogonalEdgeStyle;rounded=0;orthogonalLoop=1;jettySize=auto;html=1;" edge="1" parent="1" source="T2i8vjYdA1fQETbM9QM9-1" target="T2i8vjYdA1fQETbM9QM9-2">
          <mxGeometry relative="1" as="geometry" />
        </mxCell>
        <mxCell id="T2i8vjYdA1fQETbM9QM9-1" value="main.py" style="rounded=1;whiteSpace=wrap;html=1;" vertex="1" parent="1">
          <mxGeometry x="320" y="110" width="120" height="60" as="geometry" />
        </mxCell>
        <mxCell id="T2i8vjYdA1fQETbM9QM9-6" value="" style="edgeStyle=orthogonalEdgeStyle;rounded=0;orthogonalLoop=1;jettySize=auto;html=1;" edge="1" parent="1" source="T2i8vjYdA1fQETbM9QM9-2" target="T2i8vjYdA1fQETbM9QM9-5">
          <mxGeometry relative="1" as="geometry" />
        </mxCell>
        <mxCell id="T2i8vjYdA1fQETbM9QM9-8" value="" style="edgeStyle=orthogonalEdgeStyle;rounded=0;orthogonalLoop=1;jettySize=auto;html=1;" edge="1" parent="1" source="T2i8vjYdA1fQETbM9QM9-2" target="T2i8vjYdA1fQETbM9QM9-7">
          <mxGeometry relative="1" as="geometry" />
        </mxCell>
        <mxCell id="T2i8vjYdA1fQETbM9QM9-2" value="&lt;div style=&quot;color: rgb(204, 204, 204); background-color: rgb(31, 31, 31); font-family: Consolas, &amp;quot;Courier New&amp;quot;, monospace; font-size: 14px; line-height: 19px; white-space: pre;&quot;&gt;&lt;div&gt;&lt;span style=&quot;color: #9cdcfe;&quot;&gt;transformer&lt;/span&gt; &lt;span style=&quot;color: #d4d4d4;&quot;&gt;=&lt;/span&gt; &lt;span style=&quot;color: #4ec9b0;&quot;&gt;Transformer&lt;/span&gt;.&lt;span style=&quot;color: #dcdcaa;&quot;&gt;from_folder&lt;/span&gt;(&lt;/div&gt;&lt;div&gt;&amp;nbsp; &amp;nbsp; &amp;nbsp; &amp;nbsp; &lt;span style=&quot;color: #4ec9b0;&quot;&gt;Path&lt;/span&gt;(&lt;span style=&quot;color: #9cdcfe;&quot;&gt;model_path&lt;/span&gt;), &lt;span style=&quot;color: #9cdcfe;&quot;&gt;max_batch_size&lt;/span&gt;&lt;span style=&quot;color: #d4d4d4;&quot;&gt;=&lt;/span&gt;&lt;span style=&quot;color: #b5cea8;&quot;&gt;3&lt;/span&gt;, &lt;span style=&quot;color: #9cdcfe;&quot;&gt;num_pipeline_ranks&lt;/span&gt;&lt;span style=&quot;color: #d4d4d4;&quot;&gt;=&lt;/span&gt;&lt;span style=&quot;color: #9cdcfe;&quot;&gt;num_pipeline_ranks&lt;/span&gt;&lt;/div&gt;&lt;div&gt;&amp;nbsp; &amp;nbsp; )&lt;/div&gt;&lt;/div&gt;" style="whiteSpace=wrap;html=1;rounded=1;" vertex="1" parent="1">
          <mxGeometry x="60" y="240" width="640" height="60" as="geometry" />
        </mxCell>
        <mxCell id="T2i8vjYdA1fQETbM9QM9-4" value="demo" style="text;html=1;align=center;verticalAlign=middle;whiteSpace=wrap;rounded=0;" vertex="1" parent="1">
          <mxGeometry x="320" y="190" width="60" height="30" as="geometry" />
        </mxCell>
        <mxCell id="T2i8vjYdA1fQETbM9QM9-10" value="" style="edgeStyle=orthogonalEdgeStyle;rounded=0;orthogonalLoop=1;jettySize=auto;html=1;" edge="1" parent="1" source="T2i8vjYdA1fQETbM9QM9-5" target="T2i8vjYdA1fQETbM9QM9-9">
          <mxGeometry relative="1" as="geometry" />
        </mxCell>
        <mxCell id="T2i8vjYdA1fQETbM9QM9-11" style="edgeStyle=orthogonalEdgeStyle;rounded=0;orthogonalLoop=1;jettySize=auto;html=1;exitX=0.5;exitY=1;exitDx=0;exitDy=0;" edge="1" parent="1" source="T2i8vjYdA1fQETbM9QM9-5" target="T2i8vjYdA1fQETbM9QM9-12">
          <mxGeometry relative="1" as="geometry">
            <mxPoint x="540" y="470" as="targetPoint" />
          </mxGeometry>
        </mxCell>
        <mxCell id="T2i8vjYdA1fQETbM9QM9-5" value="&lt;div style=&quot;color: rgb(204, 204, 204); background-color: rgb(31, 31, 31); font-family: Consolas, &amp;quot;Courier New&amp;quot;, monospace; font-size: 14px; line-height: 19px; white-space: pre;&quot;&gt;&lt;span style=&quot;color: #dcdcaa;&quot;&gt;generate&lt;/span&gt;()&lt;/div&gt;" style="whiteSpace=wrap;html=1;rounded=1;" vertex="1" parent="1">
          <mxGeometry x="320" y="350" width="120" height="60" as="geometry" />
        </mxCell>
        <mxCell id="T2i8vjYdA1fQETbM9QM9-7" value="model.py&lt;div&gt;&lt;div style=&quot;color: rgb(204, 204, 204); background-color: rgb(31, 31, 31); font-family: Consolas, &amp;quot;Courier New&amp;quot;, monospace; font-size: 14px; line-height: 19px; white-space: pre;&quot;&gt;&lt;span style=&quot;color: #4ec9b0;&quot;&gt;Transformer&lt;/span&gt;&lt;/div&gt;&lt;/div&gt;" style="whiteSpace=wrap;html=1;rounded=1;" vertex="1" parent="1">
          <mxGeometry x="-180" y="240" width="120" height="60" as="geometry" />
        </mxCell>
        <mxCell id="T2i8vjYdA1fQETbM9QM9-17" style="edgeStyle=orthogonalEdgeStyle;rounded=0;orthogonalLoop=1;jettySize=auto;html=1;exitX=0.5;exitY=1;exitDx=0;exitDy=0;entryX=0.5;entryY=0;entryDx=0;entryDy=0;" edge="1" parent="1" source="T2i8vjYdA1fQETbM9QM9-9" target="T2i8vjYdA1fQETbM9QM9-16">
          <mxGeometry relative="1" as="geometry" />
        </mxCell>
        <mxCell id="T2i8vjYdA1fQETbM9QM9-9" value="&lt;div style=&quot;color: rgb(204, 204, 204); background-color: rgb(31, 31, 31); font-family: Consolas, &amp;quot;Courier New&amp;quot;, monospace; font-size: 14px; line-height: 19px; white-space: pre;&quot;&gt;&lt;span style=&quot;color: #9cdcfe;&quot;&gt;seqlens&lt;/span&gt; &lt;span style=&quot;color: #d4d4d4;&quot;&gt;=&lt;/span&gt; [&lt;span style=&quot;color: #dcdcaa;&quot;&gt;len&lt;/span&gt;(&lt;span style=&quot;color: #9cdcfe;&quot;&gt;x&lt;/span&gt;) &lt;span style=&quot;color: #c586c0;&quot;&gt;for&lt;/span&gt; &lt;span style=&quot;color: #9cdcfe;&quot;&gt;x&lt;/span&gt; &lt;span style=&quot;color: #c586c0;&quot;&gt;in&lt;/span&gt; &lt;span style=&quot;color: #9cdcfe;&quot;&gt;encoded_prompts&lt;/span&gt;]&lt;/div&gt;&lt;div style=&quot;color: rgb(204, 204, 204); background-color: rgb(31, 31, 31); font-family: Consolas, &amp;quot;Courier New&amp;quot;, monospace; font-size: 14px; line-height: 19px; white-space: pre;&quot;&gt;&lt;div style=&quot;text-align: left; line-height: 19px;&quot;&gt;&lt;span style=&quot;color: #9cdcfe;&quot;&gt;cache_window&lt;/span&gt; &lt;span style=&quot;color: #d4d4d4;&quot;&gt;=&lt;/span&gt; &lt;span style=&quot;color: #dcdcaa;&quot;&gt;max&lt;/span&gt;(&lt;span style=&quot;color: #9cdcfe;&quot;&gt;seqlens&lt;/span&gt;) &lt;span style=&quot;color: #d4d4d4;&quot;&gt;+&lt;/span&gt; &lt;span style=&quot;color: #9cdcfe;&quot;&gt;max_tokens&lt;/span&gt;&lt;/div&gt;&lt;/div&gt;" style="whiteSpace=wrap;html=1;rounded=1;" vertex="1" parent="1">
          <mxGeometry x="40" y="470" width="390" height="60" as="geometry" />
        </mxCell>
        <mxCell id="T2i8vjYdA1fQETbM9QM9-15" style="edgeStyle=orthogonalEdgeStyle;rounded=0;orthogonalLoop=1;jettySize=auto;html=1;exitX=1;exitY=0.25;exitDx=0;exitDy=0;entryX=0;entryY=0.5;entryDx=0;entryDy=0;dashed=1;" edge="1" parent="1" source="T2i8vjYdA1fQETbM9QM9-12" target="T2i8vjYdA1fQETbM9QM9-13">
          <mxGeometry relative="1" as="geometry" />
        </mxCell>
        <mxCell id="T2i8vjYdA1fQETbM9QM9-18" style="edgeStyle=orthogonalEdgeStyle;rounded=0;orthogonalLoop=1;jettySize=auto;html=1;exitX=0.5;exitY=1;exitDx=0;exitDy=0;entryX=0.5;entryY=0;entryDx=0;entryDy=0;" edge="1" parent="1" source="T2i8vjYdA1fQETbM9QM9-12" target="T2i8vjYdA1fQETbM9QM9-16">
          <mxGeometry relative="1" as="geometry" />
        </mxCell>
        <mxCell id="T2i8vjYdA1fQETbM9QM9-12" value="&lt;div style=&quot;color: rgb(204, 204, 204); background-color: rgb(31, 31, 31); font-family: Consolas, &amp;quot;Courier New&amp;quot;, monospace; font-size: 14px; line-height: 19px; white-space: pre;&quot;&gt;&lt;div&gt;&amp;nbsp; &amp;nbsp; &lt;span style=&quot;color: #9cdcfe;&quot;&gt;cache&lt;/span&gt; &lt;span style=&quot;color: #d4d4d4;&quot;&gt;=&lt;/span&gt; &lt;span style=&quot;color: #4ec9b0;&quot;&gt;RotatingBufferCache&lt;/span&gt;(&lt;/div&gt;&lt;div&gt;&amp;nbsp; &amp;nbsp; &amp;nbsp; &amp;nbsp; &lt;span style=&quot;color: #9cdcfe;&quot;&gt;model&lt;/span&gt;.&lt;span style=&quot;color: #9cdcfe;&quot;&gt;n_local_layers&lt;/span&gt;,&lt;/div&gt;&lt;div&gt;&amp;nbsp; &amp;nbsp; &amp;nbsp; &amp;nbsp; &lt;span style=&quot;color: #9cdcfe;&quot;&gt;model&lt;/span&gt;.&lt;span style=&quot;color: #9cdcfe;&quot;&gt;args&lt;/span&gt;.&lt;span style=&quot;color: #9cdcfe;&quot;&gt;max_batch_size&lt;/span&gt;,&lt;/div&gt;&lt;div&gt;&amp;nbsp; &amp;nbsp; &amp;nbsp; &amp;nbsp; &lt;span style=&quot;color: #9cdcfe;&quot;&gt;cache_window&lt;/span&gt;,&lt;/div&gt;&lt;div&gt;&amp;nbsp; &amp;nbsp; &amp;nbsp; &amp;nbsp; &lt;span style=&quot;color: #9cdcfe;&quot;&gt;model&lt;/span&gt;.&lt;span style=&quot;color: #9cdcfe;&quot;&gt;args&lt;/span&gt;.&lt;span style=&quot;color: #9cdcfe;&quot;&gt;n_kv_heads&lt;/span&gt;,&lt;/div&gt;&lt;div&gt;&amp;nbsp; &amp;nbsp; &amp;nbsp; &amp;nbsp; &lt;span style=&quot;color: #9cdcfe;&quot;&gt;model&lt;/span&gt;.&lt;span style=&quot;color: #9cdcfe;&quot;&gt;args&lt;/span&gt;.&lt;span style=&quot;color: #9cdcfe;&quot;&gt;head_dim&lt;/span&gt;,&lt;/div&gt;&lt;div&gt;&amp;nbsp; &amp;nbsp; )&lt;/div&gt;&lt;/div&gt;" style="rounded=1;whiteSpace=wrap;html=1;" vertex="1" parent="1">
          <mxGeometry x="480" y="470" width="320" height="170" as="geometry" />
        </mxCell>
        <mxCell id="T2i8vjYdA1fQETbM9QM9-13" value="(n_layers, bsz, sliding_win, n_head, head_dim)" style="text;html=1;align=center;verticalAlign=middle;whiteSpace=wrap;rounded=0;" vertex="1" parent="1">
          <mxGeometry x="840" y="498" width="290" height="30" as="geometry" />
        </mxCell>
        <mxCell id="T2i8vjYdA1fQETbM9QM9-20" value="" style="edgeStyle=orthogonalEdgeStyle;rounded=0;orthogonalLoop=1;jettySize=auto;html=1;" edge="1" parent="1" source="T2i8vjYdA1fQETbM9QM9-16" target="T2i8vjYdA1fQETbM9QM9-19">
          <mxGeometry relative="1" as="geometry" />
        </mxCell>
        <mxCell id="T2i8vjYdA1fQETbM9QM9-22" value="" style="edgeStyle=orthogonalEdgeStyle;rounded=0;orthogonalLoop=1;jettySize=auto;html=1;" edge="1" parent="1" source="T2i8vjYdA1fQETbM9QM9-16" target="T2i8vjYdA1fQETbM9QM9-21">
          <mxGeometry relative="1" as="geometry" />
        </mxCell>
        <mxCell id="T2i8vjYdA1fQETbM9QM9-16" value="&lt;div style=&quot;color: rgb(204, 204, 204); background-color: rgb(31, 31, 31); font-family: Consolas, &amp;quot;Courier New&amp;quot;, monospace; font-size: 14px; line-height: 19px; white-space: pre;&quot;&gt;&lt;div&gt;&amp;nbsp; &amp;nbsp; &amp;nbsp; &amp;nbsp; &lt;span style=&quot;color: #9cdcfe;&quot;&gt;prelogits&lt;/span&gt; &lt;span style=&quot;color: #d4d4d4;&quot;&gt;=&lt;/span&gt; &lt;span style=&quot;color: #9cdcfe;&quot;&gt;model&lt;/span&gt;.&lt;span style=&quot;color: #dcdcaa;&quot;&gt;forward&lt;/span&gt;(&lt;/div&gt;&lt;div&gt;&amp;nbsp; &amp;nbsp; &amp;nbsp; &amp;nbsp; &amp;nbsp; &amp;nbsp; &lt;span style=&quot;color: #4ec9b0;&quot;&gt;torch&lt;/span&gt;.tensor(&lt;span style=&quot;color: #dcdcaa;&quot;&gt;sum&lt;/span&gt;(&lt;span style=&quot;color: #9cdcfe;&quot;&gt;prompt_chunks&lt;/span&gt;, []), &lt;span style=&quot;color: #9cdcfe;&quot;&gt;device&lt;/span&gt;&lt;span style=&quot;color: #d4d4d4;&quot;&gt;=&lt;/span&gt;&lt;span style=&quot;color: #9cdcfe;&quot;&gt;model&lt;/span&gt;.&lt;span style=&quot;color: #9cdcfe;&quot;&gt;device&lt;/span&gt;, &lt;span style=&quot;color: #9cdcfe;&quot;&gt;dtype&lt;/span&gt;&lt;span style=&quot;color: #d4d4d4;&quot;&gt;=&lt;/span&gt;&lt;span style=&quot;color: #4ec9b0;&quot;&gt;torch&lt;/span&gt;.long),&lt;/div&gt;&lt;div&gt;&amp;nbsp; &amp;nbsp; &amp;nbsp; &amp;nbsp; &amp;nbsp; &amp;nbsp; &lt;span style=&quot;color: #9cdcfe;&quot;&gt;seqlens&lt;/span&gt;&lt;span style=&quot;color: #d4d4d4;&quot;&gt;=&lt;/span&gt;[&lt;span style=&quot;color: #dcdcaa;&quot;&gt;len&lt;/span&gt;(&lt;span style=&quot;color: #9cdcfe;&quot;&gt;p&lt;/span&gt;) &lt;span style=&quot;color: #c586c0;&quot;&gt;for&lt;/span&gt; &lt;span style=&quot;color: #9cdcfe;&quot;&gt;p&lt;/span&gt; &lt;span style=&quot;color: #c586c0;&quot;&gt;in&lt;/span&gt; &lt;span style=&quot;color: #9cdcfe;&quot;&gt;prompt_chunks&lt;/span&gt;],&lt;/div&gt;&lt;div&gt;&amp;nbsp; &amp;nbsp; &amp;nbsp; &amp;nbsp; &amp;nbsp; &amp;nbsp; &lt;span style=&quot;color: #9cdcfe;&quot;&gt;cache&lt;/span&gt;&lt;span style=&quot;color: #d4d4d4;&quot;&gt;=&lt;/span&gt;&lt;span style=&quot;color: #9cdcfe;&quot;&gt;cache&lt;/span&gt;&lt;/div&gt;&lt;div&gt;&amp;nbsp; &amp;nbsp; &amp;nbsp; &amp;nbsp; )&lt;/div&gt;&lt;/div&gt;" style="rounded=1;whiteSpace=wrap;html=1;" vertex="1" parent="1">
          <mxGeometry x="59" y="710" width="710" height="120" as="geometry" />
        </mxCell>
        <mxCell id="T2i8vjYdA1fQETbM9QM9-19" value="sample" style="whiteSpace=wrap;html=1;rounded=1;" vertex="1" parent="1">
          <mxGeometry x="354" y="890" width="120" height="60" as="geometry" />
        </mxCell>
        <mxCell id="T2i8vjYdA1fQETbM9QM9-24" value="" style="edgeStyle=orthogonalEdgeStyle;rounded=0;orthogonalLoop=1;jettySize=auto;html=1;" edge="1" parent="1" source="T2i8vjYdA1fQETbM9QM9-21" target="T2i8vjYdA1fQETbM9QM9-23">
          <mxGeometry relative="1" as="geometry" />
        </mxCell>
        <mxCell id="T2i8vjYdA1fQETbM9QM9-21" value="&lt;div style=&quot;color: rgb(204, 204, 204); background-color: rgb(31, 31, 31); font-family: Consolas, &amp;quot;Courier New&amp;quot;, monospace; font-size: 14px; line-height: 19px; white-space: pre;&quot;&gt;&lt;div style=&quot;line-height: 19px;&quot;&gt;&lt;span style=&quot;color: #9cdcfe;&quot;&gt;self&lt;/span&gt;.&lt;span style=&quot;color: #dcdcaa;&quot;&gt;forward_partial&lt;/span&gt;(&lt;span style=&quot;color: #9cdcfe;&quot;&gt;input_ids&lt;/span&gt;, &lt;span style=&quot;color: #9cdcfe;&quot;&gt;seqlens&lt;/span&gt;, &lt;span style=&quot;color: #9cdcfe;&quot;&gt;cache&lt;/span&gt;&lt;span style=&quot;color: #d4d4d4;&quot;&gt;=&lt;/span&gt;&lt;span style=&quot;color: #9cdcfe;&quot;&gt;cache&lt;/span&gt;)&lt;/div&gt;&lt;/div&gt;" style="whiteSpace=wrap;html=1;rounded=1;" vertex="1" parent="1">
          <mxGeometry x="-550" y="740" width="444" height="60" as="geometry" />
        </mxCell>
        <mxCell id="T2i8vjYdA1fQETbM9QM9-26" value="" style="edgeStyle=orthogonalEdgeStyle;rounded=0;orthogonalLoop=1;jettySize=auto;html=1;" edge="1" parent="1" source="T2i8vjYdA1fQETbM9QM9-23" target="T2i8vjYdA1fQETbM9QM9-25">
          <mxGeometry relative="1" as="geometry" />
        </mxCell>
        <mxCell id="T2i8vjYdA1fQETbM9QM9-23" value="&lt;div style=&quot;color: rgb(204, 204, 204); background-color: rgb(31, 31, 31); font-family: Consolas, &amp;quot;Courier New&amp;quot;, monospace; font-size: 14px; line-height: 19px; white-space: pre;&quot;&gt;&lt;span style=&quot;color: #9cdcfe;&quot;&gt;input_metadata&lt;/span&gt; &lt;span style=&quot;color: #d4d4d4;&quot;&gt;=&lt;/span&gt; &lt;span style=&quot;color: #9cdcfe;&quot;&gt;cache&lt;/span&gt;.&lt;span style=&quot;color: #dcdcaa;&quot;&gt;get_input_metadata&lt;/span&gt;(&lt;span style=&quot;color: #9cdcfe;&quot;&gt;seqlens&lt;/span&gt;)&lt;/div&gt;" style="whiteSpace=wrap;html=1;rounded=1;" vertex="1" parent="1">
          <mxGeometry x="-534" y="850" width="412" height="60" as="geometry" />
        </mxCell>
        <mxCell id="T2i8vjYdA1fQETbM9QM9-29" value="" style="edgeStyle=orthogonalEdgeStyle;rounded=0;orthogonalLoop=1;jettySize=auto;html=1;" edge="1" parent="1" source="T2i8vjYdA1fQETbM9QM9-25" target="T2i8vjYdA1fQETbM9QM9-28">
          <mxGeometry relative="1" as="geometry" />
        </mxCell>
        <mxCell id="T2i8vjYdA1fQETbM9QM9-25" value="&lt;div style=&quot;color: #cccccc;background-color: #1f1f1f;font-family: Consolas, &#39;Courier New&#39;, monospace;font-weight: normal;font-size: 14px;line-height: 19px;white-space: pre;&quot;&gt;&lt;div&gt;&lt;span style=&quot;color: #9cdcfe;&quot;&gt;self&lt;/span&gt;&lt;span style=&quot;color: #cccccc;&quot;&gt;.&lt;/span&gt;&lt;span style=&quot;color: #dcdcaa;&quot;&gt;init_kvseqlens&lt;/span&gt;&lt;span style=&quot;color: #cccccc;&quot;&gt;(&lt;/span&gt;&lt;span style=&quot;color: #dcdcaa;&quot;&gt;len&lt;/span&gt;&lt;span style=&quot;color: #cccccc;&quot;&gt;(&lt;/span&gt;&lt;span style=&quot;color: #9cdcfe;&quot;&gt;seqlens&lt;/span&gt;&lt;span style=&quot;color: #cccccc;&quot;&gt;))&lt;/span&gt;&lt;/div&gt;&lt;/div&gt;" style="whiteSpace=wrap;html=1;rounded=1;" vertex="1" parent="1">
          <mxGeometry x="-469" y="980" width="282" height="60" as="geometry" />
        </mxCell>
        <mxCell id="T2i8vjYdA1fQETbM9QM9-27" value="&lt;div style=&quot;color: #cccccc;background-color: #1f1f1f;font-family: Consolas, &#39;Courier New&#39;, monospace;font-weight: normal;font-size: 14px;line-height: 19px;white-space: pre;&quot;&gt;&lt;div&gt;&lt;span style=&quot;color: #9cdcfe;&quot;&gt;self&lt;/span&gt;&lt;span style=&quot;color: #cccccc;&quot;&gt;.&lt;/span&gt;&lt;span style=&quot;color: #9cdcfe;&quot;&gt;kv_seqlens&lt;/span&gt;&lt;span style=&quot;color: #cccccc;&quot;&gt; &lt;/span&gt;&lt;span style=&quot;color: #d4d4d4;&quot;&gt;=&lt;/span&gt;&lt;span style=&quot;color: #cccccc;&quot;&gt; &lt;/span&gt;&lt;span style=&quot;color: #4ec9b0;&quot;&gt;torch&lt;/span&gt;&lt;span style=&quot;color: #cccccc;&quot;&gt;.zeros((&lt;/span&gt;&lt;span style=&quot;color: #9cdcfe;&quot;&gt;batch_size&lt;/span&gt;&lt;span style=&quot;color: #cccccc;&quot;&gt;,), &lt;/span&gt;&lt;span style=&quot;color: #9cdcfe;&quot;&gt;device&lt;/span&gt;&lt;span style=&quot;color: #d4d4d4;&quot;&gt;=&lt;/span&gt;&lt;span style=&quot;color: #9cdcfe;&quot;&gt;self&lt;/span&gt;&lt;span style=&quot;color: #cccccc;&quot;&gt;.&lt;/span&gt;&lt;span style=&quot;color: #9cdcfe;&quot;&gt;device&lt;/span&gt;&lt;span style=&quot;color: #cccccc;&quot;&gt;, &lt;/span&gt;&lt;span style=&quot;color: #9cdcfe;&quot;&gt;dtype&lt;/span&gt;&lt;span style=&quot;color: #d4d4d4;&quot;&gt;=&lt;/span&gt;&lt;span style=&quot;color: #4ec9b0;&quot;&gt;torch&lt;/span&gt;&lt;span style=&quot;color: #cccccc;&quot;&gt;.long)&lt;/span&gt;&lt;/div&gt;&lt;/div&gt;" style="text;whiteSpace=wrap;html=1;" vertex="1" parent="1">
          <mxGeometry x="-973" y="1070" width="560" height="40" as="geometry" />
        </mxCell>
        <mxCell id="T2i8vjYdA1fQETbM9QM9-31" value="" style="edgeStyle=orthogonalEdgeStyle;rounded=0;orthogonalLoop=1;jettySize=auto;html=1;" edge="1" parent="1" source="T2i8vjYdA1fQETbM9QM9-28" target="T2i8vjYdA1fQETbM9QM9-30">
          <mxGeometry relative="1" as="geometry" />
        </mxCell>
        <mxCell id="T2i8vjYdA1fQETbM9QM9-28" value="&lt;div style=&quot;color: rgb(204, 204, 204); background-color: rgb(31, 31, 31); font-family: Consolas, &amp;quot;Courier New&amp;quot;, monospace; font-size: 14px; line-height: 19px; white-space: pre;&quot;&gt;&lt;span style=&quot;color: #9cdcfe;&quot;&gt;self&lt;/span&gt;.&lt;span style=&quot;color: #9cdcfe;&quot;&gt;attention&lt;/span&gt; &lt;span style=&quot;color: #d4d4d4;&quot;&gt;=&lt;/span&gt; &lt;span style=&quot;color: #4ec9b0;&quot;&gt;Attention&lt;/span&gt;(&lt;span style=&quot;color: #9cdcfe;&quot;&gt;args&lt;/span&gt;)&lt;/div&gt;&lt;div style=&quot;color: rgb(204, 204, 204); background-color: rgb(31, 31, 31); font-family: Consolas, &amp;quot;Courier New&amp;quot;, monospace; font-size: 14px; line-height: 19px; white-space: pre;&quot;&gt;&lt;div style=&quot;line-height: 19px;&quot;&gt;&lt;div&gt;&lt;span style=&quot;color: #9cdcfe;&quot;&gt;self&lt;/span&gt;.&lt;span style=&quot;color: #9cdcfe;&quot;&gt;feed_forward&lt;/span&gt; &lt;span style=&quot;color: #d4d4d4;&quot;&gt;=&lt;/span&gt; &lt;span style=&quot;color: #4ec9b0;&quot;&gt;FeedForward&lt;/span&gt;(&lt;span style=&quot;color: #9cdcfe;&quot;&gt;args&lt;/span&gt;&lt;span style=&quot;color: #d4d4d4;&quot;&gt;=&lt;/span&gt;&lt;span style=&quot;color: #9cdcfe;&quot;&gt;args&lt;/span&gt;)&lt;/div&gt;&lt;/div&gt;&lt;/div&gt;" style="whiteSpace=wrap;html=1;rounded=1;" vertex="1" parent="1">
          <mxGeometry x="-524" y="1120" width="392" height="60" as="geometry" />
        </mxCell>
        <mxCell id="T2i8vjYdA1fQETbM9QM9-30" value="&lt;div style=&quot;color: #cccccc;background-color: #1f1f1f;font-family: Consolas, &#39;Courier New&#39;, monospace;font-weight: normal;font-size: 14px;line-height: 19px;white-space: pre;&quot;&gt;&lt;div&gt;&lt;span style=&quot;color: #cccccc;&quot;&gt;memory_efficient_attention&lt;/span&gt;&lt;/div&gt;&lt;/div&gt;" style="whiteSpace=wrap;html=1;rounded=1;" vertex="1" parent="1">
          <mxGeometry x="-429" y="1230" width="202" height="60" as="geometry" />
        </mxCell>
      </root>
    </mxGraphModel>
  </diagram>
</mxfile>
